<mxfile host="app.diagrams.net" modified="2023-05-02T18:12:03.601Z" agent="Mozilla/5.0 (Windows NT 10.0; Win64; x64) AppleWebKit/537.36 (KHTML, like Gecko) Chrome/112.0.0.0 Safari/537.36" etag="n6_7j0o5h4kSidAkDtia" version="21.2.3" type="github">
  <diagram id="R2lEEEUBdFMjLlhIrx00" name="Page-1">
    <mxGraphModel dx="1269" dy="1572" grid="1" gridSize="10" guides="1" tooltips="1" connect="1" arrows="1" fold="1" page="1" pageScale="1" pageWidth="850" pageHeight="1100" math="0" shadow="0" extFonts="Permanent Marker^https://fonts.googleapis.com/css?family=Permanent+Marker">
      <root>
        <mxCell id="0" />
        <mxCell id="1" parent="0" />
        <mxCell id="jTfzwaUM89ImyYdVZQGT-2" value="BUKU" style="rounded=0;whiteSpace=wrap;html=1;fontStyle=1" vertex="1" parent="1">
          <mxGeometry x="1175" y="110" width="160" height="80" as="geometry" />
        </mxCell>
        <mxCell id="jTfzwaUM89ImyYdVZQGT-8" value="Id_Anggota" style="ellipse;whiteSpace=wrap;html=1;fontStyle=1" vertex="1" parent="1">
          <mxGeometry x="555" y="230" width="90" height="30" as="geometry" />
        </mxCell>
        <mxCell id="jTfzwaUM89ImyYdVZQGT-10" value="Pinjam_Id" style="ellipse;whiteSpace=wrap;html=1;fontStyle=1" vertex="1" parent="1">
          <mxGeometry x="555" y="180" width="70" height="30" as="geometry" />
        </mxCell>
        <mxCell id="jTfzwaUM89ImyYdVZQGT-11" value="Anggota_Id" style="ellipse;whiteSpace=wrap;html=1;fontStyle=1" vertex="1" parent="1">
          <mxGeometry x="530" y="96.25" width="80" height="30" as="geometry" />
        </mxCell>
        <mxCell id="jTfzwaUM89ImyYdVZQGT-12" value="Buku_Id" style="ellipse;whiteSpace=wrap;html=1;fontStyle=1" vertex="1" parent="1">
          <mxGeometry x="555" y="15" width="70" height="30" as="geometry" />
        </mxCell>
        <mxCell id="jTfzwaUM89ImyYdVZQGT-13" value="Status" style="ellipse;whiteSpace=wrap;html=1;fontStyle=1" vertex="1" parent="1">
          <mxGeometry x="625" y="-20" width="60" height="20" as="geometry" />
        </mxCell>
        <mxCell id="jTfzwaUM89ImyYdVZQGT-14" value="Tanggal_Pinjam" style="ellipse;whiteSpace=wrap;html=1;fontStyle=1" vertex="1" parent="1">
          <mxGeometry x="850" y="-45" width="110" height="30" as="geometry" />
        </mxCell>
        <mxCell id="jTfzwaUM89ImyYdVZQGT-16" value="Lama_Pinjam&amp;nbsp;" style="ellipse;whiteSpace=wrap;html=1;fontStyle=1" vertex="1" parent="1">
          <mxGeometry x="540" y="60" width="90" height="30" as="geometry" />
        </mxCell>
        <mxCell id="jTfzwaUM89ImyYdVZQGT-17" value="Tanggal_Balik" style="ellipse;whiteSpace=wrap;html=1;fontStyle=1" vertex="1" parent="1">
          <mxGeometry x="890" width="100" height="30" as="geometry" />
        </mxCell>
        <mxCell id="jTfzwaUM89ImyYdVZQGT-18" value="Tanggal_Kembali" style="ellipse;whiteSpace=wrap;html=1;fontStyle=1" vertex="1" parent="1">
          <mxGeometry x="890" y="40" width="110" height="40" as="geometry" />
        </mxCell>
        <mxCell id="jTfzwaUM89ImyYdVZQGT-34" value="" style="endArrow=none;html=1;rounded=0;entryX=1;entryY=0.5;entryDx=0;entryDy=0;exitX=0;exitY=1;exitDx=0;exitDy=0;fontStyle=1" edge="1" parent="1" source="jTfzwaUM89ImyYdVZQGT-208" target="jTfzwaUM89ImyYdVZQGT-8">
          <mxGeometry width="50" height="50" relative="1" as="geometry">
            <mxPoint x="805" y="130" as="sourcePoint" />
            <mxPoint x="915" y="70" as="targetPoint" />
          </mxGeometry>
        </mxCell>
        <mxCell id="jTfzwaUM89ImyYdVZQGT-35" value="" style="endArrow=none;html=1;rounded=0;entryX=1;entryY=0.5;entryDx=0;entryDy=0;exitX=0;exitY=1;exitDx=0;exitDy=0;fontStyle=1" edge="1" parent="1" source="jTfzwaUM89ImyYdVZQGT-208" target="jTfzwaUM89ImyYdVZQGT-10">
          <mxGeometry width="50" height="50" relative="1" as="geometry">
            <mxPoint x="804.9999999999998" y="109.99999999999977" as="sourcePoint" />
            <mxPoint x="915" y="70" as="targetPoint" />
          </mxGeometry>
        </mxCell>
        <mxCell id="jTfzwaUM89ImyYdVZQGT-36" value="" style="endArrow=none;html=1;rounded=0;entryX=1;entryY=1;entryDx=0;entryDy=0;exitX=0;exitY=0;exitDx=0;exitDy=0;fontStyle=1" edge="1" parent="1" source="jTfzwaUM89ImyYdVZQGT-208" target="jTfzwaUM89ImyYdVZQGT-11">
          <mxGeometry width="50" height="50" relative="1" as="geometry">
            <mxPoint x="804.9999999999998" y="109.99999999999977" as="sourcePoint" />
            <mxPoint x="915" y="70" as="targetPoint" />
          </mxGeometry>
        </mxCell>
        <mxCell id="jTfzwaUM89ImyYdVZQGT-37" value="" style="endArrow=none;html=1;rounded=0;exitX=0;exitY=0;exitDx=0;exitDy=0;fontStyle=1" edge="1" parent="1" source="jTfzwaUM89ImyYdVZQGT-208" target="jTfzwaUM89ImyYdVZQGT-16">
          <mxGeometry width="50" height="50" relative="1" as="geometry">
            <mxPoint x="804.9999999999998" y="109.99999999999977" as="sourcePoint" />
            <mxPoint x="915" y="70" as="targetPoint" />
          </mxGeometry>
        </mxCell>
        <mxCell id="jTfzwaUM89ImyYdVZQGT-38" value="" style="endArrow=none;html=1;rounded=0;entryX=1;entryY=1;entryDx=0;entryDy=0;exitX=0;exitY=0;exitDx=0;exitDy=0;fontStyle=1" edge="1" parent="1" source="jTfzwaUM89ImyYdVZQGT-208" target="jTfzwaUM89ImyYdVZQGT-12">
          <mxGeometry width="50" height="50" relative="1" as="geometry">
            <mxPoint x="804.9999999999998" y="109.99999999999977" as="sourcePoint" />
            <mxPoint x="915" y="70" as="targetPoint" />
          </mxGeometry>
        </mxCell>
        <mxCell id="jTfzwaUM89ImyYdVZQGT-39" value="" style="endArrow=none;html=1;rounded=0;entryX=0.5;entryY=1;entryDx=0;entryDy=0;exitX=0;exitY=0;exitDx=0;exitDy=0;fontStyle=1" edge="1" parent="1" source="jTfzwaUM89ImyYdVZQGT-208" target="jTfzwaUM89ImyYdVZQGT-13">
          <mxGeometry width="50" height="50" relative="1" as="geometry">
            <mxPoint x="804.9999999999998" y="109.99999999999977" as="sourcePoint" />
            <mxPoint x="915" y="70" as="targetPoint" />
          </mxGeometry>
        </mxCell>
        <mxCell id="jTfzwaUM89ImyYdVZQGT-40" value="" style="endArrow=none;html=1;rounded=0;exitX=1;exitY=0;exitDx=0;exitDy=0;fontStyle=1;entryX=0;entryY=1;entryDx=0;entryDy=0;" edge="1" parent="1" source="jTfzwaUM89ImyYdVZQGT-208" target="jTfzwaUM89ImyYdVZQGT-14">
          <mxGeometry width="50" height="50" relative="1" as="geometry">
            <mxPoint x="745" y="120" as="sourcePoint" />
            <mxPoint x="855" as="targetPoint" />
          </mxGeometry>
        </mxCell>
        <mxCell id="jTfzwaUM89ImyYdVZQGT-41" value="" style="endArrow=none;html=1;rounded=0;entryX=0;entryY=0.5;entryDx=0;entryDy=0;exitX=1;exitY=0;exitDx=0;exitDy=0;fontStyle=1" edge="1" parent="1" source="jTfzwaUM89ImyYdVZQGT-208" target="jTfzwaUM89ImyYdVZQGT-17">
          <mxGeometry width="50" height="50" relative="1" as="geometry">
            <mxPoint x="804.9999999999998" y="109.99999999999977" as="sourcePoint" />
            <mxPoint x="915" y="70" as="targetPoint" />
          </mxGeometry>
        </mxCell>
        <mxCell id="jTfzwaUM89ImyYdVZQGT-42" value="" style="endArrow=none;html=1;rounded=0;entryX=0;entryY=1;entryDx=0;entryDy=0;exitX=1;exitY=0;exitDx=0;exitDy=0;fontStyle=1" edge="1" parent="1" source="jTfzwaUM89ImyYdVZQGT-208" target="jTfzwaUM89ImyYdVZQGT-18">
          <mxGeometry width="50" height="50" relative="1" as="geometry">
            <mxPoint x="805" y="130" as="sourcePoint" />
            <mxPoint x="915" y="70" as="targetPoint" />
          </mxGeometry>
        </mxCell>
        <mxCell id="jTfzwaUM89ImyYdVZQGT-43" value="Id_Buku" style="ellipse;whiteSpace=wrap;html=1;fontStyle=1" vertex="1" parent="1">
          <mxGeometry x="995" y="80" width="85" height="20" as="geometry" />
        </mxCell>
        <mxCell id="jTfzwaUM89ImyYdVZQGT-44" value="Buku_Id" style="ellipse;whiteSpace=wrap;html=1;fontStyle=1" vertex="1" parent="1">
          <mxGeometry x="1005" y="45" width="85" height="20" as="geometry" />
        </mxCell>
        <mxCell id="jTfzwaUM89ImyYdVZQGT-47" value="Id_Katogori" style="ellipse;whiteSpace=wrap;html=1;fontStyle=1" vertex="1" parent="1">
          <mxGeometry x="1015" y="10" width="85" height="20" as="geometry" />
        </mxCell>
        <mxCell id="jTfzwaUM89ImyYdVZQGT-48" value="Id_Rak" style="ellipse;whiteSpace=wrap;html=1;fontStyle=1" vertex="1" parent="1">
          <mxGeometry x="1030" y="-20" width="85" height="20" as="geometry" />
        </mxCell>
        <mxCell id="jTfzwaUM89ImyYdVZQGT-49" value="Sampul" style="ellipse;whiteSpace=wrap;html=1;fontStyle=1" vertex="1" parent="1">
          <mxGeometry x="1045" y="-45" width="85" height="20" as="geometry" />
        </mxCell>
        <mxCell id="jTfzwaUM89ImyYdVZQGT-50" value="Isbn" style="ellipse;whiteSpace=wrap;html=1;fontStyle=1" vertex="1" parent="1">
          <mxGeometry x="1070" y="-75" width="85" height="20" as="geometry" />
        </mxCell>
        <mxCell id="jTfzwaUM89ImyYdVZQGT-51" value="Lampiran" style="ellipse;whiteSpace=wrap;html=1;fontStyle=1" vertex="1" parent="1">
          <mxGeometry x="1115" y="-105" width="85" height="20" as="geometry" />
        </mxCell>
        <mxCell id="jTfzwaUM89ImyYdVZQGT-53" value="Title" style="ellipse;whiteSpace=wrap;html=1;fontStyle=1" vertex="1" parent="1">
          <mxGeometry x="1205" y="-115" width="85" height="20" as="geometry" />
        </mxCell>
        <mxCell id="jTfzwaUM89ImyYdVZQGT-54" value="Penerbit" style="ellipse;whiteSpace=wrap;html=1;fontStyle=1" vertex="1" parent="1">
          <mxGeometry x="1280" y="-95" width="85" height="20" as="geometry" />
        </mxCell>
        <mxCell id="jTfzwaUM89ImyYdVZQGT-55" value="Pengarang" style="ellipse;whiteSpace=wrap;html=1;fontStyle=1" vertex="1" parent="1">
          <mxGeometry x="1327.5" y="-70" width="85" height="20" as="geometry" />
        </mxCell>
        <mxCell id="jTfzwaUM89ImyYdVZQGT-56" value="Thn_Buku" style="ellipse;whiteSpace=wrap;html=1;fontStyle=1" vertex="1" parent="1">
          <mxGeometry x="1360" y="-40" width="85" height="20" as="geometry" />
        </mxCell>
        <mxCell id="jTfzwaUM89ImyYdVZQGT-58" value="Isi" style="ellipse;whiteSpace=wrap;html=1;fontStyle=1" vertex="1" parent="1">
          <mxGeometry x="1372.5" y="-10" width="85" height="20" as="geometry" />
        </mxCell>
        <mxCell id="jTfzwaUM89ImyYdVZQGT-59" value="Jumlah" style="ellipse;whiteSpace=wrap;html=1;fontStyle=1" vertex="1" parent="1">
          <mxGeometry x="1365" y="20" width="85" height="20" as="geometry" />
        </mxCell>
        <mxCell id="jTfzwaUM89ImyYdVZQGT-60" value="Tanggal_Masuk" style="ellipse;whiteSpace=wrap;html=1;fontStyle=1" vertex="1" parent="1">
          <mxGeometry x="1362.5" y="50" width="95" height="30" as="geometry" />
        </mxCell>
        <mxCell id="jTfzwaUM89ImyYdVZQGT-62" value="" style="endArrow=none;html=1;rounded=0;entryX=0.5;entryY=0;entryDx=0;entryDy=0;fontStyle=1" edge="1" parent="1" source="jTfzwaUM89ImyYdVZQGT-43" target="jTfzwaUM89ImyYdVZQGT-2">
          <mxGeometry width="50" height="50" relative="1" as="geometry">
            <mxPoint x="1049.172755824835" y="101.66794859470201" as="sourcePoint" />
            <mxPoint x="1125" y="-20" as="targetPoint" />
          </mxGeometry>
        </mxCell>
        <mxCell id="jTfzwaUM89ImyYdVZQGT-64" value="" style="endArrow=none;html=1;rounded=0;entryX=0.5;entryY=0;entryDx=0;entryDy=0;exitX=1;exitY=0.5;exitDx=0;exitDy=0;fontStyle=1" edge="1" parent="1" source="jTfzwaUM89ImyYdVZQGT-44" target="jTfzwaUM89ImyYdVZQGT-2">
          <mxGeometry width="50" height="50" relative="1" as="geometry">
            <mxPoint x="1067" y="77" as="sourcePoint" />
            <mxPoint x="1275" y="120" as="targetPoint" />
          </mxGeometry>
        </mxCell>
        <mxCell id="jTfzwaUM89ImyYdVZQGT-65" value="" style="endArrow=none;html=1;rounded=0;entryX=0.5;entryY=0;entryDx=0;entryDy=0;exitX=1;exitY=0.5;exitDx=0;exitDy=0;fontStyle=1" edge="1" parent="1" source="jTfzwaUM89ImyYdVZQGT-47" target="jTfzwaUM89ImyYdVZQGT-2">
          <mxGeometry width="50" height="50" relative="1" as="geometry">
            <mxPoint x="1077" y="87" as="sourcePoint" />
            <mxPoint x="1285" y="130" as="targetPoint" />
          </mxGeometry>
        </mxCell>
        <mxCell id="jTfzwaUM89ImyYdVZQGT-66" value="" style="endArrow=none;html=1;rounded=0;entryX=0.5;entryY=0;entryDx=0;entryDy=0;exitX=1;exitY=0.5;exitDx=0;exitDy=0;fontStyle=1" edge="1" parent="1" source="jTfzwaUM89ImyYdVZQGT-48" target="jTfzwaUM89ImyYdVZQGT-2">
          <mxGeometry width="50" height="50" relative="1" as="geometry">
            <mxPoint x="1087" y="97" as="sourcePoint" />
            <mxPoint x="1295" y="140" as="targetPoint" />
          </mxGeometry>
        </mxCell>
        <mxCell id="jTfzwaUM89ImyYdVZQGT-67" value="" style="endArrow=none;html=1;rounded=0;entryX=0.5;entryY=0;entryDx=0;entryDy=0;exitX=1;exitY=0.5;exitDx=0;exitDy=0;fontStyle=1" edge="1" parent="1" source="jTfzwaUM89ImyYdVZQGT-49" target="jTfzwaUM89ImyYdVZQGT-2">
          <mxGeometry width="50" height="50" relative="1" as="geometry">
            <mxPoint x="1097" y="107" as="sourcePoint" />
            <mxPoint x="1305" y="150" as="targetPoint" />
          </mxGeometry>
        </mxCell>
        <mxCell id="jTfzwaUM89ImyYdVZQGT-68" value="" style="endArrow=none;html=1;rounded=0;exitX=1;exitY=0.5;exitDx=0;exitDy=0;entryX=0.5;entryY=0;entryDx=0;entryDy=0;fontStyle=1" edge="1" parent="1" source="jTfzwaUM89ImyYdVZQGT-50" target="jTfzwaUM89ImyYdVZQGT-2">
          <mxGeometry width="50" height="50" relative="1" as="geometry">
            <mxPoint x="1107" y="117" as="sourcePoint" />
            <mxPoint x="1265" y="110" as="targetPoint" />
          </mxGeometry>
        </mxCell>
        <mxCell id="jTfzwaUM89ImyYdVZQGT-69" value="" style="endArrow=none;html=1;rounded=0;entryX=0.5;entryY=0;entryDx=0;entryDy=0;exitX=0.5;exitY=1;exitDx=0;exitDy=0;fontStyle=1" edge="1" parent="1" source="jTfzwaUM89ImyYdVZQGT-51" target="jTfzwaUM89ImyYdVZQGT-2">
          <mxGeometry width="50" height="50" relative="1" as="geometry">
            <mxPoint x="1117" y="127" as="sourcePoint" />
            <mxPoint x="1325" y="170" as="targetPoint" />
          </mxGeometry>
        </mxCell>
        <mxCell id="jTfzwaUM89ImyYdVZQGT-70" value="" style="endArrow=none;html=1;rounded=0;entryX=0.5;entryY=0;entryDx=0;entryDy=0;exitX=0.4;exitY=1.1;exitDx=0;exitDy=0;exitPerimeter=0;fontStyle=1" edge="1" parent="1" source="jTfzwaUM89ImyYdVZQGT-53" target="jTfzwaUM89ImyYdVZQGT-2">
          <mxGeometry width="50" height="50" relative="1" as="geometry">
            <mxPoint x="1127" y="137" as="sourcePoint" />
            <mxPoint x="1335" y="180" as="targetPoint" />
          </mxGeometry>
        </mxCell>
        <mxCell id="jTfzwaUM89ImyYdVZQGT-71" value="" style="endArrow=none;html=1;rounded=0;exitX=0;exitY=1;exitDx=0;exitDy=0;entryX=0.5;entryY=0;entryDx=0;entryDy=0;fontStyle=1" edge="1" parent="1" source="jTfzwaUM89ImyYdVZQGT-54" target="jTfzwaUM89ImyYdVZQGT-2">
          <mxGeometry width="50" height="50" relative="1" as="geometry">
            <mxPoint x="1137" y="147" as="sourcePoint" />
            <mxPoint x="1345" y="190" as="targetPoint" />
          </mxGeometry>
        </mxCell>
        <mxCell id="jTfzwaUM89ImyYdVZQGT-72" value="" style="endArrow=none;html=1;rounded=0;entryX=0.5;entryY=0;entryDx=0;entryDy=0;exitX=0;exitY=1;exitDx=0;exitDy=0;fontStyle=1" edge="1" parent="1" source="jTfzwaUM89ImyYdVZQGT-55" target="jTfzwaUM89ImyYdVZQGT-2">
          <mxGeometry width="50" height="50" relative="1" as="geometry">
            <mxPoint x="1147" y="157" as="sourcePoint" />
            <mxPoint x="1355" y="200" as="targetPoint" />
          </mxGeometry>
        </mxCell>
        <mxCell id="jTfzwaUM89ImyYdVZQGT-73" value="" style="endArrow=none;html=1;rounded=0;entryX=0.5;entryY=0;entryDx=0;entryDy=0;exitX=0;exitY=0.5;exitDx=0;exitDy=0;fontStyle=1" edge="1" parent="1" source="jTfzwaUM89ImyYdVZQGT-56" target="jTfzwaUM89ImyYdVZQGT-2">
          <mxGeometry width="50" height="50" relative="1" as="geometry">
            <mxPoint x="1157" y="167" as="sourcePoint" />
            <mxPoint x="1365" y="210" as="targetPoint" />
          </mxGeometry>
        </mxCell>
        <mxCell id="jTfzwaUM89ImyYdVZQGT-74" value="" style="endArrow=none;html=1;rounded=0;entryX=0.5;entryY=0;entryDx=0;entryDy=0;exitX=0;exitY=0.5;exitDx=0;exitDy=0;fontStyle=1" edge="1" parent="1" source="jTfzwaUM89ImyYdVZQGT-58" target="jTfzwaUM89ImyYdVZQGT-2">
          <mxGeometry width="50" height="50" relative="1" as="geometry">
            <mxPoint x="1167" y="177" as="sourcePoint" />
            <mxPoint x="1375" y="220" as="targetPoint" />
          </mxGeometry>
        </mxCell>
        <mxCell id="jTfzwaUM89ImyYdVZQGT-75" value="" style="endArrow=none;html=1;rounded=0;entryX=0.5;entryY=0;entryDx=0;entryDy=0;exitX=0;exitY=0.5;exitDx=0;exitDy=0;fontStyle=1" edge="1" parent="1" source="jTfzwaUM89ImyYdVZQGT-59" target="jTfzwaUM89ImyYdVZQGT-2">
          <mxGeometry width="50" height="50" relative="1" as="geometry">
            <mxPoint x="1177" y="187" as="sourcePoint" />
            <mxPoint x="1385" y="230" as="targetPoint" />
          </mxGeometry>
        </mxCell>
        <mxCell id="jTfzwaUM89ImyYdVZQGT-76" value="" style="endArrow=none;html=1;rounded=0;entryX=0.5;entryY=0;entryDx=0;entryDy=0;exitX=0;exitY=0.5;exitDx=0;exitDy=0;fontStyle=1" edge="1" parent="1" source="jTfzwaUM89ImyYdVZQGT-60" target="jTfzwaUM89ImyYdVZQGT-2">
          <mxGeometry width="50" height="50" relative="1" as="geometry">
            <mxPoint x="1187" y="197" as="sourcePoint" />
            <mxPoint x="1395" y="240" as="targetPoint" />
          </mxGeometry>
        </mxCell>
        <mxCell id="jTfzwaUM89ImyYdVZQGT-165" value="KATEGORI" style="rounded=0;whiteSpace=wrap;html=1;fontStyle=1" vertex="1" parent="1">
          <mxGeometry x="1175" y="520" width="160" height="80" as="geometry" />
        </mxCell>
        <mxCell id="jTfzwaUM89ImyYdVZQGT-166" value="Id_Kategori" style="ellipse;whiteSpace=wrap;html=1;fontStyle=1" vertex="1" parent="1">
          <mxGeometry x="1080" y="456.25" width="105" height="30" as="geometry" />
        </mxCell>
        <mxCell id="jTfzwaUM89ImyYdVZQGT-167" value="Nama_Kategori" style="ellipse;whiteSpace=wrap;html=1;fontStyle=1" vertex="1" parent="1">
          <mxGeometry x="1290" y="453.75" width="140" height="35" as="geometry" />
        </mxCell>
        <mxCell id="jTfzwaUM89ImyYdVZQGT-171" value="" style="endArrow=none;html=1;rounded=0;entryX=1;entryY=1;entryDx=0;entryDy=0;exitX=0.5;exitY=0;exitDx=0;exitDy=0;fontStyle=1" edge="1" parent="1" source="jTfzwaUM89ImyYdVZQGT-165" target="jTfzwaUM89ImyYdVZQGT-166">
          <mxGeometry width="50" height="50" relative="1" as="geometry">
            <mxPoint x="1440" y="458.75" as="sourcePoint" />
            <mxPoint x="1490" y="408.75" as="targetPoint" />
          </mxGeometry>
        </mxCell>
        <mxCell id="jTfzwaUM89ImyYdVZQGT-172" value="" style="endArrow=none;html=1;rounded=0;entryX=0.5;entryY=1;entryDx=0;entryDy=0;exitX=0.5;exitY=0;exitDx=0;exitDy=0;fontStyle=1" edge="1" parent="1" source="jTfzwaUM89ImyYdVZQGT-165" target="jTfzwaUM89ImyYdVZQGT-167">
          <mxGeometry width="50" height="50" relative="1" as="geometry">
            <mxPoint x="1265" y="488.75" as="sourcePoint" />
            <mxPoint x="1150" y="443.75" as="targetPoint" />
          </mxGeometry>
        </mxCell>
        <mxCell id="jTfzwaUM89ImyYdVZQGT-176" value="RAK" style="rounded=0;whiteSpace=wrap;html=1;fontStyle=1" vertex="1" parent="1">
          <mxGeometry x="1470" y="310" width="160" height="80" as="geometry" />
        </mxCell>
        <mxCell id="jTfzwaUM89ImyYdVZQGT-177" value="Id_Rak" style="ellipse;whiteSpace=wrap;html=1;fontStyle=1" vertex="1" parent="1">
          <mxGeometry x="1352.5" y="233.75" width="105" height="30" as="geometry" />
        </mxCell>
        <mxCell id="jTfzwaUM89ImyYdVZQGT-178" value="Nama_Rak" style="ellipse;whiteSpace=wrap;html=1;fontStyle=1" vertex="1" parent="1">
          <mxGeometry x="1562.5" y="240" width="87.5" height="23.75" as="geometry" />
        </mxCell>
        <mxCell id="jTfzwaUM89ImyYdVZQGT-179" value="" style="endArrow=none;html=1;rounded=0;entryX=1;entryY=1;entryDx=0;entryDy=0;exitX=0.5;exitY=0;exitDx=0;exitDy=0;fontStyle=1" edge="1" parent="1" source="jTfzwaUM89ImyYdVZQGT-176" target="jTfzwaUM89ImyYdVZQGT-177">
          <mxGeometry width="50" height="50" relative="1" as="geometry">
            <mxPoint x="1725" y="253.75" as="sourcePoint" />
            <mxPoint x="1775" y="203.75" as="targetPoint" />
          </mxGeometry>
        </mxCell>
        <mxCell id="jTfzwaUM89ImyYdVZQGT-180" value="" style="endArrow=none;html=1;rounded=0;entryX=0.5;entryY=1;entryDx=0;entryDy=0;exitX=0.5;exitY=0;exitDx=0;exitDy=0;fontStyle=1" edge="1" parent="1" source="jTfzwaUM89ImyYdVZQGT-176" target="jTfzwaUM89ImyYdVZQGT-178">
          <mxGeometry width="50" height="50" relative="1" as="geometry">
            <mxPoint x="1550" y="283.75" as="sourcePoint" />
            <mxPoint x="1435" y="238.75" as="targetPoint" />
          </mxGeometry>
        </mxCell>
        <mxCell id="jTfzwaUM89ImyYdVZQGT-181" value="PETUGAS" style="rounded=0;whiteSpace=wrap;html=1;fontStyle=1" vertex="1" parent="1">
          <mxGeometry x="225" y="10" width="160" height="80" as="geometry" />
        </mxCell>
        <mxCell id="jTfzwaUM89ImyYdVZQGT-182" value="Anggota_Id" style="ellipse;whiteSpace=wrap;html=1;fontStyle=1" vertex="1" parent="1">
          <mxGeometry x="45" y="-20" width="90" height="30" as="geometry" />
        </mxCell>
        <mxCell id="jTfzwaUM89ImyYdVZQGT-183" value="Username" style="ellipse;whiteSpace=wrap;html=1;fontStyle=1" vertex="1" parent="1">
          <mxGeometry x="45" y="-50" width="80" height="20" as="geometry" />
        </mxCell>
        <mxCell id="jTfzwaUM89ImyYdVZQGT-184" value="Password" style="ellipse;whiteSpace=wrap;html=1;fontStyle=1" vertex="1" parent="1">
          <mxGeometry x="45" y="-80" width="80" height="20" as="geometry" />
        </mxCell>
        <mxCell id="jTfzwaUM89ImyYdVZQGT-185" value="Level" style="ellipse;whiteSpace=wrap;html=1;fontStyle=1" vertex="1" parent="1">
          <mxGeometry x="90" y="-105" width="80" height="20" as="geometry" />
        </mxCell>
        <mxCell id="jTfzwaUM89ImyYdVZQGT-186" value="Nama" style="ellipse;whiteSpace=wrap;html=1;fontStyle=1" vertex="1" parent="1">
          <mxGeometry x="165" y="-125" width="90" height="20" as="geometry" />
        </mxCell>
        <mxCell id="jTfzwaUM89ImyYdVZQGT-187" value="Tempat_Lahir" style="ellipse;whiteSpace=wrap;html=1;fontStyle=1" vertex="1" parent="1">
          <mxGeometry x="310" y="-220" width="90" height="30" as="geometry" />
        </mxCell>
        <mxCell id="jTfzwaUM89ImyYdVZQGT-188" value="Tanggal_Lahir" style="ellipse;whiteSpace=wrap;html=1;fontStyle=1" vertex="1" parent="1">
          <mxGeometry x="410" y="-220" width="90" height="30" as="geometry" />
        </mxCell>
        <mxCell id="jTfzwaUM89ImyYdVZQGT-189" value="Jenis_Kelamin" style="ellipse;whiteSpace=wrap;html=1;fontStyle=1" vertex="1" parent="1">
          <mxGeometry x="425" y="-175" width="90" height="30" as="geometry" />
        </mxCell>
        <mxCell id="jTfzwaUM89ImyYdVZQGT-190" value="Telepon" style="ellipse;whiteSpace=wrap;html=1;fontStyle=1" vertex="1" parent="1">
          <mxGeometry x="440" y="-135" width="90" height="30" as="geometry" />
        </mxCell>
        <mxCell id="jTfzwaUM89ImyYdVZQGT-191" value="Email" style="ellipse;whiteSpace=wrap;html=1;fontStyle=1" vertex="1" parent="1">
          <mxGeometry x="440" y="-95" width="90" height="30" as="geometry" />
        </mxCell>
        <mxCell id="jTfzwaUM89ImyYdVZQGT-192" value="Foto" style="ellipse;whiteSpace=wrap;html=1;fontStyle=1" vertex="1" parent="1">
          <mxGeometry x="450" y="-55" width="90" height="30" as="geometry" />
        </mxCell>
        <mxCell id="jTfzwaUM89ImyYdVZQGT-193" value="Alamat" style="ellipse;whiteSpace=wrap;html=1;fontStyle=1" vertex="1" parent="1">
          <mxGeometry x="465" y="-15" width="90" height="30" as="geometry" />
        </mxCell>
        <mxCell id="jTfzwaUM89ImyYdVZQGT-194" value="" style="endArrow=none;html=1;rounded=0;entryX=1;entryY=0.5;entryDx=0;entryDy=0;exitX=0.5;exitY=0;exitDx=0;exitDy=0;fontStyle=1" edge="1" parent="1" source="jTfzwaUM89ImyYdVZQGT-181" target="jTfzwaUM89ImyYdVZQGT-182">
          <mxGeometry width="50" height="50" relative="1" as="geometry">
            <mxPoint x="495" y="-60" as="sourcePoint" />
            <mxPoint x="545" y="-110" as="targetPoint" />
          </mxGeometry>
        </mxCell>
        <mxCell id="jTfzwaUM89ImyYdVZQGT-195" value="" style="endArrow=none;html=1;rounded=0;entryX=1;entryY=0.5;entryDx=0;entryDy=0;exitX=0.5;exitY=0;exitDx=0;exitDy=0;fontStyle=1" edge="1" parent="1" source="jTfzwaUM89ImyYdVZQGT-181" target="jTfzwaUM89ImyYdVZQGT-183">
          <mxGeometry width="50" height="50" relative="1" as="geometry">
            <mxPoint x="320" y="-30" as="sourcePoint" />
            <mxPoint x="205" y="-75" as="targetPoint" />
          </mxGeometry>
        </mxCell>
        <mxCell id="jTfzwaUM89ImyYdVZQGT-196" value="" style="endArrow=none;html=1;rounded=0;entryX=1;entryY=0.5;entryDx=0;entryDy=0;exitX=0.5;exitY=0;exitDx=0;exitDy=0;fontStyle=1" edge="1" parent="1" source="jTfzwaUM89ImyYdVZQGT-181" target="jTfzwaUM89ImyYdVZQGT-184">
          <mxGeometry width="50" height="50" relative="1" as="geometry">
            <mxPoint x="330" y="-20" as="sourcePoint" />
            <mxPoint x="215" y="-65" as="targetPoint" />
          </mxGeometry>
        </mxCell>
        <mxCell id="jTfzwaUM89ImyYdVZQGT-197" value="" style="endArrow=none;html=1;rounded=0;entryX=0.5;entryY=1;entryDx=0;entryDy=0;exitX=0.5;exitY=0;exitDx=0;exitDy=0;fontStyle=1" edge="1" parent="1" source="jTfzwaUM89ImyYdVZQGT-181" target="jTfzwaUM89ImyYdVZQGT-185">
          <mxGeometry width="50" height="50" relative="1" as="geometry">
            <mxPoint x="340" y="-10" as="sourcePoint" />
            <mxPoint x="225" y="-55" as="targetPoint" />
          </mxGeometry>
        </mxCell>
        <mxCell id="jTfzwaUM89ImyYdVZQGT-198" value="" style="endArrow=none;html=1;rounded=0;entryX=0.5;entryY=1;entryDx=0;entryDy=0;exitX=0.5;exitY=0;exitDx=0;exitDy=0;fontStyle=1" edge="1" parent="1" source="jTfzwaUM89ImyYdVZQGT-181" target="jTfzwaUM89ImyYdVZQGT-186">
          <mxGeometry width="50" height="50" relative="1" as="geometry">
            <mxPoint x="350" as="sourcePoint" />
            <mxPoint x="235" y="-45" as="targetPoint" />
          </mxGeometry>
        </mxCell>
        <mxCell id="jTfzwaUM89ImyYdVZQGT-199" value="" style="endArrow=none;html=1;rounded=0;entryX=0.5;entryY=1;entryDx=0;entryDy=0;exitX=0.5;exitY=0;exitDx=0;exitDy=0;fontStyle=1" edge="1" parent="1" source="jTfzwaUM89ImyYdVZQGT-181" target="jTfzwaUM89ImyYdVZQGT-187">
          <mxGeometry width="50" height="50" relative="1" as="geometry">
            <mxPoint x="360" y="10" as="sourcePoint" />
            <mxPoint x="245" y="-35" as="targetPoint" />
          </mxGeometry>
        </mxCell>
        <mxCell id="jTfzwaUM89ImyYdVZQGT-200" value="" style="endArrow=none;html=1;rounded=0;entryX=0;entryY=1;entryDx=0;entryDy=0;exitX=0.5;exitY=0;exitDx=0;exitDy=0;fontStyle=1" edge="1" parent="1" source="jTfzwaUM89ImyYdVZQGT-181" target="jTfzwaUM89ImyYdVZQGT-188">
          <mxGeometry width="50" height="50" relative="1" as="geometry">
            <mxPoint x="370" y="20" as="sourcePoint" />
            <mxPoint x="255" y="-25" as="targetPoint" />
          </mxGeometry>
        </mxCell>
        <mxCell id="jTfzwaUM89ImyYdVZQGT-201" value="" style="endArrow=none;html=1;rounded=0;entryX=0;entryY=1;entryDx=0;entryDy=0;exitX=0.5;exitY=0;exitDx=0;exitDy=0;fontStyle=1" edge="1" parent="1" source="jTfzwaUM89ImyYdVZQGT-181" target="jTfzwaUM89ImyYdVZQGT-189">
          <mxGeometry width="50" height="50" relative="1" as="geometry">
            <mxPoint x="305" y="-40" as="sourcePoint" />
            <mxPoint x="265" y="-15" as="targetPoint" />
          </mxGeometry>
        </mxCell>
        <mxCell id="jTfzwaUM89ImyYdVZQGT-202" value="" style="endArrow=none;html=1;rounded=0;entryX=0;entryY=0.5;entryDx=0;entryDy=0;exitX=0.5;exitY=0;exitDx=0;exitDy=0;fontStyle=1" edge="1" parent="1" source="jTfzwaUM89ImyYdVZQGT-181" target="jTfzwaUM89ImyYdVZQGT-190">
          <mxGeometry width="50" height="50" relative="1" as="geometry">
            <mxPoint x="390" y="40" as="sourcePoint" />
            <mxPoint x="275" y="-5" as="targetPoint" />
          </mxGeometry>
        </mxCell>
        <mxCell id="jTfzwaUM89ImyYdVZQGT-203" value="" style="endArrow=none;html=1;rounded=0;entryX=0;entryY=0.5;entryDx=0;entryDy=0;exitX=0.5;exitY=0;exitDx=0;exitDy=0;fontStyle=1" edge="1" parent="1" source="jTfzwaUM89ImyYdVZQGT-181" target="jTfzwaUM89ImyYdVZQGT-191">
          <mxGeometry width="50" height="50" relative="1" as="geometry">
            <mxPoint x="400" y="50" as="sourcePoint" />
            <mxPoint x="285" y="5" as="targetPoint" />
          </mxGeometry>
        </mxCell>
        <mxCell id="jTfzwaUM89ImyYdVZQGT-204" value="" style="endArrow=none;html=1;rounded=0;entryX=0;entryY=0.5;entryDx=0;entryDy=0;exitX=0.5;exitY=0;exitDx=0;exitDy=0;fontStyle=1" edge="1" parent="1" source="jTfzwaUM89ImyYdVZQGT-181" target="jTfzwaUM89ImyYdVZQGT-192">
          <mxGeometry width="50" height="50" relative="1" as="geometry">
            <mxPoint x="410" y="60" as="sourcePoint" />
            <mxPoint x="295" y="15" as="targetPoint" />
          </mxGeometry>
        </mxCell>
        <mxCell id="jTfzwaUM89ImyYdVZQGT-205" value="" style="endArrow=none;html=1;rounded=0;entryX=0;entryY=0.5;entryDx=0;entryDy=0;exitX=0.5;exitY=0;exitDx=0;exitDy=0;fontStyle=1" edge="1" parent="1" source="jTfzwaUM89ImyYdVZQGT-181" target="jTfzwaUM89ImyYdVZQGT-193">
          <mxGeometry width="50" height="50" relative="1" as="geometry">
            <mxPoint x="420" y="70" as="sourcePoint" />
            <mxPoint x="305" y="25" as="targetPoint" />
          </mxGeometry>
        </mxCell>
        <mxCell id="jTfzwaUM89ImyYdVZQGT-208" value="Peminjaman" style="rhombus;whiteSpace=wrap;html=1;fontStyle=1" vertex="1" parent="1">
          <mxGeometry x="685" y="100" width="240" height="110" as="geometry" />
        </mxCell>
        <mxCell id="jTfzwaUM89ImyYdVZQGT-216" value="" style="endArrow=none;html=1;rounded=0;entryX=1;entryY=0.5;entryDx=0;entryDy=0;fontStyle=1" edge="1" parent="1" source="jTfzwaUM89ImyYdVZQGT-2" target="jTfzwaUM89ImyYdVZQGT-208">
          <mxGeometry width="50" height="50" relative="1" as="geometry">
            <mxPoint x="805" y="270" as="sourcePoint" />
            <mxPoint x="935" y="180" as="targetPoint" />
          </mxGeometry>
        </mxCell>
        <mxCell id="jTfzwaUM89ImyYdVZQGT-217" value="M" style="rounded=0;whiteSpace=wrap;html=1;fontStyle=1;fontSize=18;" vertex="1" parent="1">
          <mxGeometry x="945" y="120" width="40" height="30" as="geometry" />
        </mxCell>
        <mxCell id="jTfzwaUM89ImyYdVZQGT-221" value="Petugas" style="ellipse;whiteSpace=wrap;html=1;fontStyle=1" vertex="1" parent="1">
          <mxGeometry x="35" y="-155" width="90" height="20" as="geometry" />
        </mxCell>
        <mxCell id="jTfzwaUM89ImyYdVZQGT-223" value="" style="endArrow=none;html=1;rounded=0;entryX=0.5;entryY=1;entryDx=0;entryDy=0;exitX=0.5;exitY=0;exitDx=0;exitDy=0;fontStyle=1" edge="1" parent="1" source="jTfzwaUM89ImyYdVZQGT-185" target="jTfzwaUM89ImyYdVZQGT-221">
          <mxGeometry width="50" height="50" relative="1" as="geometry">
            <mxPoint x="154.9999999999999" y="-125" as="sourcePoint" />
            <mxPoint x="335" y="-160" as="targetPoint" />
          </mxGeometry>
        </mxCell>
        <mxCell id="jTfzwaUM89ImyYdVZQGT-248" value="Memiliki" style="rhombus;whiteSpace=wrap;html=1;fontStyle=1" vertex="1" parent="1">
          <mxGeometry x="1155" y="263.75" width="200" height="140" as="geometry" />
        </mxCell>
        <mxCell id="jTfzwaUM89ImyYdVZQGT-250" value="" style="endArrow=none;html=1;rounded=0;entryX=0.5;entryY=1;entryDx=0;entryDy=0;exitX=0.5;exitY=0;exitDx=0;exitDy=0;startArrow=none;startFill=0;endFill=0;fontStyle=1" edge="1" parent="1" source="jTfzwaUM89ImyYdVZQGT-248" target="jTfzwaUM89ImyYdVZQGT-2">
          <mxGeometry width="50" height="50" relative="1" as="geometry">
            <mxPoint x="1215" y="340" as="sourcePoint" />
            <mxPoint x="1265" y="290" as="targetPoint" />
          </mxGeometry>
        </mxCell>
        <mxCell id="jTfzwaUM89ImyYdVZQGT-251" value="" style="endArrow=none;html=1;rounded=0;entryX=0.5;entryY=0;entryDx=0;entryDy=0;exitX=0.5;exitY=1;exitDx=0;exitDy=0;endFill=0;fontStyle=1" edge="1" parent="1" source="jTfzwaUM89ImyYdVZQGT-248" target="jTfzwaUM89ImyYdVZQGT-165">
          <mxGeometry width="50" height="50" relative="1" as="geometry">
            <mxPoint x="1215" y="340" as="sourcePoint" />
            <mxPoint x="1265" y="290" as="targetPoint" />
          </mxGeometry>
        </mxCell>
        <mxCell id="jTfzwaUM89ImyYdVZQGT-252" value="1" style="rounded=0;whiteSpace=wrap;html=1;fontStyle=1;fontSize=18;" vertex="1" parent="1">
          <mxGeometry x="1200" y="215" width="40" height="30" as="geometry" />
        </mxCell>
        <mxCell id="jTfzwaUM89ImyYdVZQGT-253" value="M" style="rounded=0;whiteSpace=wrap;html=1;fontStyle=1;fontSize=18;" vertex="1" parent="1">
          <mxGeometry x="1200" y="413.75" width="40" height="30" as="geometry" />
        </mxCell>
        <mxCell id="jTfzwaUM89ImyYdVZQGT-255" value="1" style="rounded=0;whiteSpace=wrap;html=1;fontStyle=1;fontSize=18;" vertex="1" parent="1">
          <mxGeometry x="1395" y="110" width="40" height="30" as="geometry" />
        </mxCell>
        <mxCell id="jTfzwaUM89ImyYdVZQGT-257" value="Memuat" style="rhombus;whiteSpace=wrap;html=1;fontStyle=1" vertex="1" parent="1">
          <mxGeometry x="1475" y="96.25" width="150" height="113.75" as="geometry" />
        </mxCell>
        <mxCell id="jTfzwaUM89ImyYdVZQGT-261" value="" style="endArrow=none;html=1;rounded=0;entryX=1;entryY=0.5;entryDx=0;entryDy=0;fontStyle=1;exitX=0;exitY=0.5;exitDx=0;exitDy=0;" edge="1" parent="1" source="jTfzwaUM89ImyYdVZQGT-257" target="jTfzwaUM89ImyYdVZQGT-2">
          <mxGeometry width="50" height="50" relative="1" as="geometry">
            <mxPoint x="1645" y="245.62" as="sourcePoint" />
            <mxPoint x="1395" y="249.62" as="targetPoint" />
          </mxGeometry>
        </mxCell>
        <mxCell id="jTfzwaUM89ImyYdVZQGT-263" value="" style="endArrow=none;html=1;rounded=0;entryX=0.5;entryY=1;entryDx=0;entryDy=0;fontStyle=1;exitX=0.5;exitY=0;exitDx=0;exitDy=0;" edge="1" parent="1" source="jTfzwaUM89ImyYdVZQGT-176" target="jTfzwaUM89ImyYdVZQGT-257">
          <mxGeometry width="50" height="50" relative="1" as="geometry">
            <mxPoint x="1655" y="266.75" as="sourcePoint" />
            <mxPoint x="1515" y="263.75" as="targetPoint" />
          </mxGeometry>
        </mxCell>
        <mxCell id="jTfzwaUM89ImyYdVZQGT-264" value="Melayani" style="rhombus;whiteSpace=wrap;html=1;fontStyle=1" vertex="1" parent="1">
          <mxGeometry x="212.5" y="-380" width="185" height="130" as="geometry" />
        </mxCell>
        <mxCell id="jTfzwaUM89ImyYdVZQGT-267" value="ANGGOTA" style="rounded=0;whiteSpace=wrap;html=1;fontStyle=1" vertex="1" parent="1">
          <mxGeometry x="730" y="-350" width="160" height="80" as="geometry" />
        </mxCell>
        <mxCell id="jTfzwaUM89ImyYdVZQGT-268" value="Anggota_Id" style="ellipse;whiteSpace=wrap;html=1;fontStyle=1" vertex="1" parent="1">
          <mxGeometry x="570" y="-380" width="90" height="30" as="geometry" />
        </mxCell>
        <mxCell id="jTfzwaUM89ImyYdVZQGT-269" value="Username" style="ellipse;whiteSpace=wrap;html=1;fontStyle=1" vertex="1" parent="1">
          <mxGeometry x="590" y="-405" width="80" height="20" as="geometry" />
        </mxCell>
        <mxCell id="jTfzwaUM89ImyYdVZQGT-270" value="Password" style="ellipse;whiteSpace=wrap;html=1;fontStyle=1" vertex="1" parent="1">
          <mxGeometry x="590" y="-432.81" width="80" height="20" as="geometry" />
        </mxCell>
        <mxCell id="jTfzwaUM89ImyYdVZQGT-271" value="Level" style="ellipse;whiteSpace=wrap;html=1;fontStyle=1" vertex="1" parent="1">
          <mxGeometry x="605" y="-470" width="80" height="25" as="geometry" />
        </mxCell>
        <mxCell id="jTfzwaUM89ImyYdVZQGT-272" value="Nama" style="ellipse;whiteSpace=wrap;html=1;fontStyle=1" vertex="1" parent="1">
          <mxGeometry x="660" y="-500" width="90" height="20" as="geometry" />
        </mxCell>
        <mxCell id="jTfzwaUM89ImyYdVZQGT-273" value="Tempat_Lahir" style="ellipse;whiteSpace=wrap;html=1;fontStyle=1" vertex="1" parent="1">
          <mxGeometry x="710" y="-530" width="90" height="30" as="geometry" />
        </mxCell>
        <mxCell id="jTfzwaUM89ImyYdVZQGT-274" value="Tanggal_Lahir" style="ellipse;whiteSpace=wrap;html=1;fontStyle=1" vertex="1" parent="1">
          <mxGeometry x="792.5" y="-550" width="90" height="30" as="geometry" />
        </mxCell>
        <mxCell id="jTfzwaUM89ImyYdVZQGT-275" value="Jenis_Kelamin" style="ellipse;whiteSpace=wrap;html=1;fontStyle=1" vertex="1" parent="1">
          <mxGeometry x="860" y="-520" width="90" height="30" as="geometry" />
        </mxCell>
        <mxCell id="jTfzwaUM89ImyYdVZQGT-276" value="Telepon" style="ellipse;whiteSpace=wrap;html=1;fontStyle=1" vertex="1" parent="1">
          <mxGeometry x="882.5" y="-482.81" width="90" height="30" as="geometry" />
        </mxCell>
        <mxCell id="jTfzwaUM89ImyYdVZQGT-277" value="Email" style="ellipse;whiteSpace=wrap;html=1;fontStyle=1" vertex="1" parent="1">
          <mxGeometry x="905" y="-450" width="90" height="30" as="geometry" />
        </mxCell>
        <mxCell id="jTfzwaUM89ImyYdVZQGT-278" value="Foto" style="ellipse;whiteSpace=wrap;html=1;fontStyle=1" vertex="1" parent="1">
          <mxGeometry x="915" y="-410" width="90" height="30" as="geometry" />
        </mxCell>
        <mxCell id="jTfzwaUM89ImyYdVZQGT-279" value="Alamat" style="ellipse;whiteSpace=wrap;html=1;fontStyle=1" vertex="1" parent="1">
          <mxGeometry x="930" y="-370" width="90" height="30" as="geometry" />
        </mxCell>
        <mxCell id="jTfzwaUM89ImyYdVZQGT-280" value="" style="endArrow=none;html=1;rounded=0;entryX=1;entryY=0.5;entryDx=0;entryDy=0;exitX=0.5;exitY=0;exitDx=0;exitDy=0;fontStyle=1" edge="1" parent="1" source="jTfzwaUM89ImyYdVZQGT-267" target="jTfzwaUM89ImyYdVZQGT-268">
          <mxGeometry width="50" height="50" relative="1" as="geometry">
            <mxPoint x="1000" y="-420" as="sourcePoint" />
            <mxPoint x="1050" y="-470" as="targetPoint" />
          </mxGeometry>
        </mxCell>
        <mxCell id="jTfzwaUM89ImyYdVZQGT-281" value="" style="endArrow=none;html=1;rounded=0;entryX=1;entryY=0.5;entryDx=0;entryDy=0;exitX=0.5;exitY=0;exitDx=0;exitDy=0;fontStyle=1" edge="1" parent="1" source="jTfzwaUM89ImyYdVZQGT-267" target="jTfzwaUM89ImyYdVZQGT-269">
          <mxGeometry width="50" height="50" relative="1" as="geometry">
            <mxPoint x="825" y="-390" as="sourcePoint" />
            <mxPoint x="710" y="-435" as="targetPoint" />
          </mxGeometry>
        </mxCell>
        <mxCell id="jTfzwaUM89ImyYdVZQGT-282" value="" style="endArrow=none;html=1;rounded=0;entryX=1;entryY=0.5;entryDx=0;entryDy=0;exitX=0.5;exitY=0;exitDx=0;exitDy=0;fontStyle=1" edge="1" parent="1" source="jTfzwaUM89ImyYdVZQGT-267" target="jTfzwaUM89ImyYdVZQGT-270">
          <mxGeometry width="50" height="50" relative="1" as="geometry">
            <mxPoint x="835" y="-380" as="sourcePoint" />
            <mxPoint x="720" y="-425" as="targetPoint" />
          </mxGeometry>
        </mxCell>
        <mxCell id="jTfzwaUM89ImyYdVZQGT-283" value="" style="endArrow=none;html=1;rounded=0;entryX=1;entryY=0.5;entryDx=0;entryDy=0;exitX=0.5;exitY=0;exitDx=0;exitDy=0;fontStyle=1" edge="1" parent="1" source="jTfzwaUM89ImyYdVZQGT-267" target="jTfzwaUM89ImyYdVZQGT-271">
          <mxGeometry width="50" height="50" relative="1" as="geometry">
            <mxPoint x="845" y="-370" as="sourcePoint" />
            <mxPoint x="730" y="-415" as="targetPoint" />
          </mxGeometry>
        </mxCell>
        <mxCell id="jTfzwaUM89ImyYdVZQGT-284" value="" style="endArrow=none;html=1;rounded=0;entryX=0.5;entryY=1;entryDx=0;entryDy=0;exitX=0.5;exitY=0;exitDx=0;exitDy=0;fontStyle=1" edge="1" parent="1" source="jTfzwaUM89ImyYdVZQGT-267" target="jTfzwaUM89ImyYdVZQGT-272">
          <mxGeometry width="50" height="50" relative="1" as="geometry">
            <mxPoint x="855" y="-360" as="sourcePoint" />
            <mxPoint x="740" y="-405" as="targetPoint" />
          </mxGeometry>
        </mxCell>
        <mxCell id="jTfzwaUM89ImyYdVZQGT-285" value="" style="endArrow=none;html=1;rounded=0;entryX=1;entryY=1;entryDx=0;entryDy=0;exitX=0.5;exitY=0;exitDx=0;exitDy=0;fontStyle=1" edge="1" parent="1" source="jTfzwaUM89ImyYdVZQGT-267" target="jTfzwaUM89ImyYdVZQGT-273">
          <mxGeometry width="50" height="50" relative="1" as="geometry">
            <mxPoint x="865" y="-350" as="sourcePoint" />
            <mxPoint x="750" y="-395" as="targetPoint" />
          </mxGeometry>
        </mxCell>
        <mxCell id="jTfzwaUM89ImyYdVZQGT-286" value="" style="endArrow=none;html=1;rounded=0;entryX=0.5;entryY=1;entryDx=0;entryDy=0;exitX=0.5;exitY=0;exitDx=0;exitDy=0;fontStyle=1" edge="1" parent="1" source="jTfzwaUM89ImyYdVZQGT-267" target="jTfzwaUM89ImyYdVZQGT-274">
          <mxGeometry width="50" height="50" relative="1" as="geometry">
            <mxPoint x="875" y="-340" as="sourcePoint" />
            <mxPoint x="760" y="-385" as="targetPoint" />
          </mxGeometry>
        </mxCell>
        <mxCell id="jTfzwaUM89ImyYdVZQGT-287" value="" style="endArrow=none;html=1;rounded=0;entryX=0;entryY=0.5;entryDx=0;entryDy=0;exitX=0.5;exitY=0;exitDx=0;exitDy=0;fontStyle=1" edge="1" parent="1" source="jTfzwaUM89ImyYdVZQGT-267" target="jTfzwaUM89ImyYdVZQGT-275">
          <mxGeometry width="50" height="50" relative="1" as="geometry">
            <mxPoint x="810" y="-400" as="sourcePoint" />
            <mxPoint x="770" y="-375" as="targetPoint" />
          </mxGeometry>
        </mxCell>
        <mxCell id="jTfzwaUM89ImyYdVZQGT-288" value="" style="endArrow=none;html=1;rounded=0;entryX=0;entryY=0.5;entryDx=0;entryDy=0;exitX=0.5;exitY=0;exitDx=0;exitDy=0;fontStyle=1" edge="1" parent="1" source="jTfzwaUM89ImyYdVZQGT-267" target="jTfzwaUM89ImyYdVZQGT-276">
          <mxGeometry width="50" height="50" relative="1" as="geometry">
            <mxPoint x="895" y="-320" as="sourcePoint" />
            <mxPoint x="780" y="-365" as="targetPoint" />
          </mxGeometry>
        </mxCell>
        <mxCell id="jTfzwaUM89ImyYdVZQGT-289" value="" style="endArrow=none;html=1;rounded=0;entryX=0;entryY=0.5;entryDx=0;entryDy=0;exitX=0.5;exitY=0;exitDx=0;exitDy=0;fontStyle=1" edge="1" parent="1" source="jTfzwaUM89ImyYdVZQGT-267" target="jTfzwaUM89ImyYdVZQGT-277">
          <mxGeometry width="50" height="50" relative="1" as="geometry">
            <mxPoint x="905" y="-310" as="sourcePoint" />
            <mxPoint x="790" y="-355" as="targetPoint" />
          </mxGeometry>
        </mxCell>
        <mxCell id="jTfzwaUM89ImyYdVZQGT-290" value="" style="endArrow=none;html=1;rounded=0;entryX=0;entryY=0.5;entryDx=0;entryDy=0;exitX=0.5;exitY=0;exitDx=0;exitDy=0;fontStyle=1" edge="1" parent="1" source="jTfzwaUM89ImyYdVZQGT-267" target="jTfzwaUM89ImyYdVZQGT-278">
          <mxGeometry width="50" height="50" relative="1" as="geometry">
            <mxPoint x="915" y="-300" as="sourcePoint" />
            <mxPoint x="800" y="-345" as="targetPoint" />
          </mxGeometry>
        </mxCell>
        <mxCell id="jTfzwaUM89ImyYdVZQGT-291" value="" style="endArrow=none;html=1;rounded=0;entryX=0;entryY=0.5;entryDx=0;entryDy=0;exitX=0.5;exitY=0;exitDx=0;exitDy=0;fontStyle=1" edge="1" parent="1" source="jTfzwaUM89ImyYdVZQGT-267" target="jTfzwaUM89ImyYdVZQGT-279">
          <mxGeometry width="50" height="50" relative="1" as="geometry">
            <mxPoint x="925" y="-290" as="sourcePoint" />
            <mxPoint x="810" y="-335" as="targetPoint" />
          </mxGeometry>
        </mxCell>
        <mxCell id="jTfzwaUM89ImyYdVZQGT-292" value="Anggota" style="ellipse;whiteSpace=wrap;html=1;fontStyle=1" vertex="1" parent="1">
          <mxGeometry x="555" y="-500" width="90" height="20" as="geometry" />
        </mxCell>
        <mxCell id="jTfzwaUM89ImyYdVZQGT-294" value="" style="endArrow=none;html=1;rounded=0;entryX=0.5;entryY=1;entryDx=0;entryDy=0;fontStyle=1;exitX=0.5;exitY=0;exitDx=0;exitDy=0;" edge="1" parent="1" target="jTfzwaUM89ImyYdVZQGT-292" source="jTfzwaUM89ImyYdVZQGT-271">
          <mxGeometry width="50" height="50" relative="1" as="geometry">
            <mxPoint x="611.8729434520521" y="-484.99903174427936" as="sourcePoint" />
            <mxPoint x="805" y="-645.01" as="targetPoint" />
          </mxGeometry>
        </mxCell>
        <mxCell id="jTfzwaUM89ImyYdVZQGT-298" value="" style="endArrow=none;html=1;rounded=0;entryX=0.5;entryY=1;entryDx=0;entryDy=0;" edge="1" parent="1" target="jTfzwaUM89ImyYdVZQGT-264">
          <mxGeometry width="50" height="50" relative="1" as="geometry">
            <mxPoint x="305" y="11.333333333333314" as="sourcePoint" />
            <mxPoint x="485" y="-310" as="targetPoint" />
          </mxGeometry>
        </mxCell>
        <mxCell id="jTfzwaUM89ImyYdVZQGT-299" value="" style="endArrow=none;html=1;rounded=0;exitX=1;exitY=0.5;exitDx=0;exitDy=0;entryX=0;entryY=0.5;entryDx=0;entryDy=0;" edge="1" parent="1" source="jTfzwaUM89ImyYdVZQGT-264" target="jTfzwaUM89ImyYdVZQGT-267">
          <mxGeometry width="50" height="50" relative="1" as="geometry">
            <mxPoint x="805" y="-140" as="sourcePoint" />
            <mxPoint x="855" y="-190" as="targetPoint" />
          </mxGeometry>
        </mxCell>
        <mxCell id="jTfzwaUM89ImyYdVZQGT-300" value="1" style="rounded=0;whiteSpace=wrap;html=1;fontStyle=1;fontSize=18;" vertex="1" parent="1">
          <mxGeometry x="255" y="-190" width="40" height="30" as="geometry" />
        </mxCell>
        <mxCell id="jTfzwaUM89ImyYdVZQGT-301" value="M" style="rounded=0;whiteSpace=wrap;html=1;fontStyle=1;fontSize=18;" vertex="1" parent="1">
          <mxGeometry x="450" y="-350" width="40" height="30" as="geometry" />
        </mxCell>
        <mxCell id="jTfzwaUM89ImyYdVZQGT-302" value="" style="endArrow=none;html=1;rounded=0;entryX=0.463;entryY=1;entryDx=0;entryDy=0;entryPerimeter=0;exitX=0.5;exitY=0;exitDx=0;exitDy=0;" edge="1" parent="1" source="jTfzwaUM89ImyYdVZQGT-208" target="jTfzwaUM89ImyYdVZQGT-267">
          <mxGeometry width="50" height="50" relative="1" as="geometry">
            <mxPoint x="795" y="-20" as="sourcePoint" />
            <mxPoint x="805" y="-200" as="targetPoint" />
          </mxGeometry>
        </mxCell>
        <mxCell id="jTfzwaUM89ImyYdVZQGT-303" value="1" style="rounded=0;whiteSpace=wrap;html=1;fontStyle=1;fontSize=18;" vertex="1" parent="1">
          <mxGeometry x="750" y="-200" width="40" height="30" as="geometry" />
        </mxCell>
        <mxCell id="jTfzwaUM89ImyYdVZQGT-304" value="DENDA" style="rounded=0;whiteSpace=wrap;html=1;fontStyle=1" vertex="1" parent="1">
          <mxGeometry x="1452.5" y="-344.37" width="160" height="80" as="geometry" />
        </mxCell>
        <mxCell id="jTfzwaUM89ImyYdVZQGT-305" value="Id_Denda" style="ellipse;whiteSpace=wrap;html=1;fontStyle=1" vertex="1" parent="1">
          <mxGeometry x="1372.5" y="-415" width="90" height="30" as="geometry" />
        </mxCell>
        <mxCell id="jTfzwaUM89ImyYdVZQGT-306" value="Pinjam_Id" style="ellipse;whiteSpace=wrap;html=1;fontStyle=1" vertex="1" parent="1">
          <mxGeometry x="1470" y="-470" width="80" height="20" as="geometry" />
        </mxCell>
        <mxCell id="jTfzwaUM89ImyYdVZQGT-307" value="Denda" style="ellipse;whiteSpace=wrap;html=1;fontStyle=1" vertex="1" parent="1">
          <mxGeometry x="1390" y="-452.81" width="80" height="20" as="geometry" />
        </mxCell>
        <mxCell id="jTfzwaUM89ImyYdVZQGT-308" value="Lama_Waktu" style="ellipse;whiteSpace=wrap;html=1;fontStyle=1" vertex="1" parent="1">
          <mxGeometry x="1532.5" y="-446.87" width="100" height="25" as="geometry" />
        </mxCell>
        <mxCell id="jTfzwaUM89ImyYdVZQGT-309" value="Tanggal_Denda" style="ellipse;whiteSpace=wrap;html=1;fontStyle=1" vertex="1" parent="1">
          <mxGeometry x="1562.5" y="-395" width="100" height="30" as="geometry" />
        </mxCell>
        <mxCell id="jTfzwaUM89ImyYdVZQGT-310" value="" style="endArrow=none;html=1;rounded=0;entryX=1;entryY=1;entryDx=0;entryDy=0;exitX=0.5;exitY=0;exitDx=0;exitDy=0;fontStyle=1" edge="1" parent="1" source="jTfzwaUM89ImyYdVZQGT-304" target="jTfzwaUM89ImyYdVZQGT-305">
          <mxGeometry width="50" height="50" relative="1" as="geometry">
            <mxPoint x="1672.5" y="-244.37" as="sourcePoint" />
            <mxPoint x="1722.5" y="-294.37" as="targetPoint" />
          </mxGeometry>
        </mxCell>
        <mxCell id="jTfzwaUM89ImyYdVZQGT-311" value="" style="endArrow=none;html=1;rounded=0;entryX=0.5;entryY=1;entryDx=0;entryDy=0;exitX=0.5;exitY=0;exitDx=0;exitDy=0;fontStyle=1" edge="1" parent="1" source="jTfzwaUM89ImyYdVZQGT-304" target="jTfzwaUM89ImyYdVZQGT-306">
          <mxGeometry width="50" height="50" relative="1" as="geometry">
            <mxPoint x="1497.5" y="-214.37" as="sourcePoint" />
            <mxPoint x="1382.5" y="-259.37" as="targetPoint" />
          </mxGeometry>
        </mxCell>
        <mxCell id="jTfzwaUM89ImyYdVZQGT-312" value="" style="endArrow=none;html=1;rounded=0;entryX=0.5;entryY=1;entryDx=0;entryDy=0;exitX=0.5;exitY=0;exitDx=0;exitDy=0;fontStyle=1" edge="1" parent="1" source="jTfzwaUM89ImyYdVZQGT-304" target="jTfzwaUM89ImyYdVZQGT-307">
          <mxGeometry width="50" height="50" relative="1" as="geometry">
            <mxPoint x="1507.5" y="-204.37" as="sourcePoint" />
            <mxPoint x="1392.5" y="-249.37" as="targetPoint" />
          </mxGeometry>
        </mxCell>
        <mxCell id="jTfzwaUM89ImyYdVZQGT-313" value="" style="endArrow=none;html=1;rounded=0;entryX=0.291;entryY=0.933;entryDx=0;entryDy=0;exitX=0.5;exitY=0;exitDx=0;exitDy=0;fontStyle=1;entryPerimeter=0;" edge="1" parent="1" source="jTfzwaUM89ImyYdVZQGT-304" target="jTfzwaUM89ImyYdVZQGT-308">
          <mxGeometry width="50" height="50" relative="1" as="geometry">
            <mxPoint x="1517.5" y="-194.37" as="sourcePoint" />
            <mxPoint x="1402.5" y="-239.37" as="targetPoint" />
          </mxGeometry>
        </mxCell>
        <mxCell id="jTfzwaUM89ImyYdVZQGT-314" value="" style="endArrow=none;html=1;rounded=0;entryX=0;entryY=0.5;entryDx=0;entryDy=0;exitX=0.5;exitY=0;exitDx=0;exitDy=0;fontStyle=1" edge="1" parent="1" source="jTfzwaUM89ImyYdVZQGT-304" target="jTfzwaUM89ImyYdVZQGT-309">
          <mxGeometry width="50" height="50" relative="1" as="geometry">
            <mxPoint x="1527.5" y="-184.37" as="sourcePoint" />
            <mxPoint x="1412.5" y="-229.37" as="targetPoint" />
          </mxGeometry>
        </mxCell>
        <mxCell id="jTfzwaUM89ImyYdVZQGT-315" value="MEMBAYAR" style="rhombus;whiteSpace=wrap;html=1;fontStyle=1" vertex="1" parent="1">
          <mxGeometry x="1105" y="-372.5" width="200" height="130" as="geometry" />
        </mxCell>
        <mxCell id="jTfzwaUM89ImyYdVZQGT-317" value="" style="endArrow=none;html=1;rounded=0;entryX=1;entryY=0.5;entryDx=0;entryDy=0;fontStyle=1;exitX=0;exitY=0.5;exitDx=0;exitDy=0;" edge="1" parent="1" source="jTfzwaUM89ImyYdVZQGT-304" target="jTfzwaUM89ImyYdVZQGT-315">
          <mxGeometry width="50" height="50" relative="1" as="geometry">
            <mxPoint x="1620" y="-366.25" as="sourcePoint" />
            <mxPoint x="1670" y="-416.25" as="targetPoint" />
          </mxGeometry>
        </mxCell>
        <mxCell id="jTfzwaUM89ImyYdVZQGT-319" value="M" style="rounded=0;whiteSpace=wrap;html=1;fontStyle=1;fontSize=18;" vertex="1" parent="1">
          <mxGeometry x="1355" y="-350" width="40" height="30" as="geometry" />
        </mxCell>
        <mxCell id="jTfzwaUM89ImyYdVZQGT-320" value="Id_Biaya_Denda" style="ellipse;whiteSpace=wrap;html=1;fontStyle=1" vertex="1" parent="1">
          <mxGeometry x="1075" y="-500" width="110" height="38.75" as="geometry" />
        </mxCell>
        <mxCell id="jTfzwaUM89ImyYdVZQGT-321" value="Harga_Denda" style="ellipse;whiteSpace=wrap;html=1;fontStyle=1" vertex="1" parent="1">
          <mxGeometry x="1022.5" y="-445.62" width="100" height="34.38" as="geometry" />
        </mxCell>
        <mxCell id="jTfzwaUM89ImyYdVZQGT-322" value="Status" style="ellipse;whiteSpace=wrap;html=1;fontStyle=1" vertex="1" parent="1">
          <mxGeometry x="1212.5" y="-490" width="85" height="30" as="geometry" />
        </mxCell>
        <mxCell id="jTfzwaUM89ImyYdVZQGT-323" value="Tanggal_Tetap" style="ellipse;whiteSpace=wrap;html=1;fontStyle=1" vertex="1" parent="1">
          <mxGeometry x="1260" y="-452.81" width="105" height="30.62" as="geometry" />
        </mxCell>
        <mxCell id="jTfzwaUM89ImyYdVZQGT-324" value="" style="endArrow=none;html=1;rounded=0;entryX=0.5;entryY=1;entryDx=0;entryDy=0;exitX=0.5;exitY=0;exitDx=0;exitDy=0;fontStyle=1" edge="1" parent="1" source="jTfzwaUM89ImyYdVZQGT-315" target="jTfzwaUM89ImyYdVZQGT-321">
          <mxGeometry width="50" height="50" relative="1" as="geometry">
            <mxPoint x="1510" y="-286.25" as="sourcePoint" />
            <mxPoint x="1560" y="-336.25" as="targetPoint" />
          </mxGeometry>
        </mxCell>
        <mxCell id="jTfzwaUM89ImyYdVZQGT-325" value="" style="endArrow=none;html=1;rounded=0;entryX=0.5;entryY=1;entryDx=0;entryDy=0;exitX=0.5;exitY=0;exitDx=0;exitDy=0;fontStyle=1" edge="1" parent="1" source="jTfzwaUM89ImyYdVZQGT-315" target="jTfzwaUM89ImyYdVZQGT-320">
          <mxGeometry width="50" height="50" relative="1" as="geometry">
            <mxPoint x="1510" y="-286.25" as="sourcePoint" />
            <mxPoint x="1560" y="-336.25" as="targetPoint" />
          </mxGeometry>
        </mxCell>
        <mxCell id="jTfzwaUM89ImyYdVZQGT-326" value="" style="endArrow=none;html=1;rounded=0;entryX=0;entryY=1;entryDx=0;entryDy=0;exitX=0.5;exitY=0;exitDx=0;exitDy=0;fontStyle=1" edge="1" parent="1" source="jTfzwaUM89ImyYdVZQGT-315" target="jTfzwaUM89ImyYdVZQGT-322">
          <mxGeometry width="50" height="50" relative="1" as="geometry">
            <mxPoint x="1510" y="-286.25" as="sourcePoint" />
            <mxPoint x="1560" y="-336.25" as="targetPoint" />
          </mxGeometry>
        </mxCell>
        <mxCell id="jTfzwaUM89ImyYdVZQGT-327" value="" style="endArrow=none;html=1;rounded=0;entryX=0;entryY=1;entryDx=0;entryDy=0;exitX=0.5;exitY=0;exitDx=0;exitDy=0;fontStyle=1" edge="1" parent="1" source="jTfzwaUM89ImyYdVZQGT-315" target="jTfzwaUM89ImyYdVZQGT-323">
          <mxGeometry width="50" height="50" relative="1" as="geometry">
            <mxPoint x="1510" y="-286.25" as="sourcePoint" />
            <mxPoint x="1560" y="-336.25" as="targetPoint" />
          </mxGeometry>
        </mxCell>
        <mxCell id="jTfzwaUM89ImyYdVZQGT-329" value="" style="endArrow=none;html=1;rounded=0;exitX=1;exitY=0.5;exitDx=0;exitDy=0;entryX=0;entryY=0.5;entryDx=0;entryDy=0;" edge="1" parent="1" source="jTfzwaUM89ImyYdVZQGT-267" target="jTfzwaUM89ImyYdVZQGT-315">
          <mxGeometry width="50" height="50" relative="1" as="geometry">
            <mxPoint x="995" y="-270" as="sourcePoint" />
            <mxPoint x="1045" y="-320" as="targetPoint" />
          </mxGeometry>
        </mxCell>
        <mxCell id="jTfzwaUM89ImyYdVZQGT-330" value="1" style="rounded=0;whiteSpace=wrap;html=1;fontStyle=1;fontSize=18;" vertex="1" parent="1">
          <mxGeometry x="1030" y="-344.37" width="40" height="30" as="geometry" />
        </mxCell>
        <mxCell id="jTfzwaUM89ImyYdVZQGT-332" value="1" style="rounded=0;whiteSpace=wrap;html=1;fontStyle=1;fontSize=18;direction=south;" vertex="1" parent="1">
          <mxGeometry x="1502.5" y="220" width="30" height="40" as="geometry" />
        </mxCell>
        <mxCell id="jTfzwaUM89ImyYdVZQGT-334" value="Daftar_Anggota" style="ellipse;whiteSpace=wrap;html=1;fontStyle=1" vertex="1" parent="1">
          <mxGeometry x="110" y="-432.81" width="110" height="30" as="geometry" />
        </mxCell>
        <mxCell id="jTfzwaUM89ImyYdVZQGT-335" value="" style="endArrow=none;html=1;rounded=0;entryX=0.5;entryY=1;entryDx=0;entryDy=0;exitX=0;exitY=0;exitDx=0;exitDy=0;" edge="1" parent="1" source="jTfzwaUM89ImyYdVZQGT-264" target="jTfzwaUM89ImyYdVZQGT-334">
          <mxGeometry width="50" height="50" relative="1" as="geometry">
            <mxPoint x="750" y="-210" as="sourcePoint" />
            <mxPoint x="800" y="-260" as="targetPoint" />
          </mxGeometry>
        </mxCell>
        <mxCell id="jTfzwaUM89ImyYdVZQGT-338" value="Menghasilkan" style="rhombus;whiteSpace=wrap;html=1;fontStyle=1" vertex="1" parent="1">
          <mxGeometry x="705" y="260" width="200" height="140" as="geometry" />
        </mxCell>
        <mxCell id="jTfzwaUM89ImyYdVZQGT-339" value="" style="endArrow=none;html=1;rounded=0;entryX=0.5;entryY=1;entryDx=0;entryDy=0;exitX=0.5;exitY=0;exitDx=0;exitDy=0;startArrow=none;startFill=0;endFill=0;fontStyle=1" edge="1" parent="1" source="jTfzwaUM89ImyYdVZQGT-338" target="jTfzwaUM89ImyYdVZQGT-208">
          <mxGeometry width="50" height="50" relative="1" as="geometry">
            <mxPoint x="1265" y="274" as="sourcePoint" />
            <mxPoint x="1265" y="200" as="targetPoint" />
          </mxGeometry>
        </mxCell>
        <mxCell id="jTfzwaUM89ImyYdVZQGT-340" value="Pengembalian" style="rounded=0;whiteSpace=wrap;html=1;fontStyle=1" vertex="1" parent="1">
          <mxGeometry x="725" y="530" width="160" height="80" as="geometry" />
        </mxCell>
        <mxCell id="jTfzwaUM89ImyYdVZQGT-341" value="" style="endArrow=none;html=1;rounded=0;entryX=0.5;entryY=0;entryDx=0;entryDy=0;exitX=0.5;exitY=1;exitDx=0;exitDy=0;endFill=0;fontStyle=1" edge="1" parent="1" source="jTfzwaUM89ImyYdVZQGT-338" target="jTfzwaUM89ImyYdVZQGT-340">
          <mxGeometry width="50" height="50" relative="1" as="geometry">
            <mxPoint x="885" y="434" as="sourcePoint" />
            <mxPoint x="885" y="550" as="targetPoint" />
          </mxGeometry>
        </mxCell>
        <mxCell id="jTfzwaUM89ImyYdVZQGT-342" value="Pinjem_Id" style="ellipse;whiteSpace=wrap;html=1;fontStyle=1" vertex="1" parent="1">
          <mxGeometry x="590" y="610" width="90" height="30" as="geometry" />
        </mxCell>
        <mxCell id="jTfzwaUM89ImyYdVZQGT-344" value="" style="endArrow=none;html=1;rounded=0;entryX=0;entryY=0.5;entryDx=0;entryDy=0;exitX=0.5;exitY=0;exitDx=0;exitDy=0;endFill=0;fontStyle=1" edge="1" parent="1" source="jTfzwaUM89ImyYdVZQGT-342" target="jTfzwaUM89ImyYdVZQGT-340">
          <mxGeometry width="50" height="50" relative="1" as="geometry">
            <mxPoint x="815" y="410" as="sourcePoint" />
            <mxPoint x="815" y="540" as="targetPoint" />
          </mxGeometry>
        </mxCell>
        <mxCell id="jTfzwaUM89ImyYdVZQGT-345" value="Anggota_Id" style="ellipse;whiteSpace=wrap;html=1;fontStyle=1" vertex="1" parent="1">
          <mxGeometry x="535" y="580" width="90" height="30" as="geometry" />
        </mxCell>
        <mxCell id="jTfzwaUM89ImyYdVZQGT-346" value="" style="endArrow=none;html=1;rounded=0;exitX=1;exitY=0;exitDx=0;exitDy=0;endFill=0;fontStyle=1;entryX=0;entryY=0.5;entryDx=0;entryDy=0;" edge="1" parent="1" source="jTfzwaUM89ImyYdVZQGT-345" target="jTfzwaUM89ImyYdVZQGT-340">
          <mxGeometry width="50" height="50" relative="1" as="geometry">
            <mxPoint x="565" y="615" as="sourcePoint" />
            <mxPoint x="720" y="570" as="targetPoint" />
          </mxGeometry>
        </mxCell>
        <mxCell id="jTfzwaUM89ImyYdVZQGT-347" value="Status" style="ellipse;whiteSpace=wrap;html=1;fontStyle=1" vertex="1" parent="1">
          <mxGeometry x="510" y="440" width="90" height="30" as="geometry" />
        </mxCell>
        <mxCell id="jTfzwaUM89ImyYdVZQGT-348" value="" style="endArrow=none;html=1;rounded=0;exitX=1;exitY=1;exitDx=0;exitDy=0;endFill=0;fontStyle=1;entryX=0;entryY=0.5;entryDx=0;entryDy=0;" edge="1" parent="1" source="jTfzwaUM89ImyYdVZQGT-347" target="jTfzwaUM89ImyYdVZQGT-340">
          <mxGeometry width="50" height="50" relative="1" as="geometry">
            <mxPoint x="565" y="560" as="sourcePoint" />
            <mxPoint x="670" y="620" as="targetPoint" />
          </mxGeometry>
        </mxCell>
        <mxCell id="jTfzwaUM89ImyYdVZQGT-349" value="Tanggal_Pinjema" style="ellipse;whiteSpace=wrap;html=1;fontStyle=1" vertex="1" parent="1">
          <mxGeometry x="960" y="565" width="115" height="36.25" as="geometry" />
        </mxCell>
        <mxCell id="jTfzwaUM89ImyYdVZQGT-350" value="" style="endArrow=none;html=1;rounded=0;exitX=0;exitY=0.5;exitDx=0;exitDy=0;endFill=0;fontStyle=1;entryX=1;entryY=0.5;entryDx=0;entryDy=0;" edge="1" parent="1" source="jTfzwaUM89ImyYdVZQGT-349" target="jTfzwaUM89ImyYdVZQGT-340">
          <mxGeometry width="50" height="50" relative="1" as="geometry">
            <mxPoint x="575" y="511" as="sourcePoint" />
            <mxPoint x="735" y="580" as="targetPoint" />
          </mxGeometry>
        </mxCell>
        <mxCell id="jTfzwaUM89ImyYdVZQGT-351" value="Lama_Pinjam" style="ellipse;whiteSpace=wrap;html=1;fontStyle=1" vertex="1" parent="1">
          <mxGeometry x="960" y="516.25" width="115" height="36.25" as="geometry" />
        </mxCell>
        <mxCell id="jTfzwaUM89ImyYdVZQGT-352" value="" style="endArrow=none;html=1;rounded=0;exitX=0;exitY=0.5;exitDx=0;exitDy=0;endFill=0;fontStyle=1;entryX=1;entryY=0.5;entryDx=0;entryDy=0;" edge="1" parent="1" source="jTfzwaUM89ImyYdVZQGT-351" target="jTfzwaUM89ImyYdVZQGT-340">
          <mxGeometry width="50" height="50" relative="1" as="geometry">
            <mxPoint x="970" y="593" as="sourcePoint" />
            <mxPoint x="895" y="580" as="targetPoint" />
          </mxGeometry>
        </mxCell>
        <mxCell id="jTfzwaUM89ImyYdVZQGT-353" value="" style="endArrow=none;html=1;rounded=0;exitX=0;exitY=1;exitDx=0;exitDy=0;endFill=0;fontStyle=1;entryX=1;entryY=0.5;entryDx=0;entryDy=0;" edge="1" parent="1" source="jTfzwaUM89ImyYdVZQGT-354" target="jTfzwaUM89ImyYdVZQGT-340">
          <mxGeometry width="50" height="50" relative="1" as="geometry">
            <mxPoint x="980" y="603" as="sourcePoint" />
            <mxPoint x="905" y="590" as="targetPoint" />
          </mxGeometry>
        </mxCell>
        <mxCell id="jTfzwaUM89ImyYdVZQGT-354" value="Tanggal_Balik" style="ellipse;whiteSpace=wrap;html=1;fontStyle=1" vertex="1" parent="1">
          <mxGeometry x="950" y="470" width="115" height="36.25" as="geometry" />
        </mxCell>
        <mxCell id="jTfzwaUM89ImyYdVZQGT-355" value="Tanggal_Balik" style="ellipse;whiteSpace=wrap;html=1;fontStyle=1" vertex="1" parent="1">
          <mxGeometry x="882.5" y="433.75" width="115" height="36.25" as="geometry" />
        </mxCell>
        <mxCell id="jTfzwaUM89ImyYdVZQGT-356" value="" style="endArrow=none;html=1;rounded=0;exitX=0.5;exitY=1;exitDx=0;exitDy=0;endFill=0;fontStyle=1;entryX=1;entryY=0.5;entryDx=0;entryDy=0;" edge="1" parent="1" source="jTfzwaUM89ImyYdVZQGT-355" target="jTfzwaUM89ImyYdVZQGT-340">
          <mxGeometry width="50" height="50" relative="1" as="geometry">
            <mxPoint x="976" y="511" as="sourcePoint" />
            <mxPoint x="895" y="580" as="targetPoint" />
          </mxGeometry>
        </mxCell>
        <mxCell id="jTfzwaUM89ImyYdVZQGT-357" value="Denda" style="ellipse;whiteSpace=wrap;html=1;fontStyle=1" vertex="1" parent="1">
          <mxGeometry x="590" y="403.75" width="115" height="36.25" as="geometry" />
        </mxCell>
        <mxCell id="jTfzwaUM89ImyYdVZQGT-358" value="" style="endArrow=none;html=1;rounded=0;exitX=0.5;exitY=1;exitDx=0;exitDy=0;endFill=0;fontStyle=1;entryX=0;entryY=0.5;entryDx=0;entryDy=0;" edge="1" parent="1" source="jTfzwaUM89ImyYdVZQGT-357" target="jTfzwaUM89ImyYdVZQGT-340">
          <mxGeometry width="50" height="50" relative="1" as="geometry">
            <mxPoint x="575" y="511" as="sourcePoint" />
            <mxPoint x="735" y="580" as="targetPoint" />
          </mxGeometry>
        </mxCell>
        <mxCell id="jTfzwaUM89ImyYdVZQGT-359" value="M" style="rounded=0;whiteSpace=wrap;html=1;fontStyle=1;fontSize=18;" vertex="1" parent="1">
          <mxGeometry x="750" y="220" width="40" height="30" as="geometry" />
        </mxCell>
        <mxCell id="jTfzwaUM89ImyYdVZQGT-360" value="1" style="rounded=0;whiteSpace=wrap;html=1;fontStyle=1;fontSize=18;" vertex="1" parent="1">
          <mxGeometry x="750" y="450" width="40" height="30" as="geometry" />
        </mxCell>
        <mxCell id="jTfzwaUM89ImyYdVZQGT-372" value="Mengelola" style="rhombus;whiteSpace=wrap;html=1;fontStyle=1" vertex="1" parent="1">
          <mxGeometry x="205" y="500" width="200" height="140" as="geometry" />
        </mxCell>
        <mxCell id="jTfzwaUM89ImyYdVZQGT-376" value="" style="endArrow=none;html=1;rounded=0;exitX=1;exitY=0.5;exitDx=0;exitDy=0;endFill=0;fontStyle=1;entryX=0;entryY=0.5;entryDx=0;entryDy=0;" edge="1" parent="1" source="jTfzwaUM89ImyYdVZQGT-372" target="jTfzwaUM89ImyYdVZQGT-340">
          <mxGeometry width="50" height="50" relative="1" as="geometry">
            <mxPoint x="590" y="605" as="sourcePoint" />
            <mxPoint x="735" y="600" as="targetPoint" />
          </mxGeometry>
        </mxCell>
        <mxCell id="jTfzwaUM89ImyYdVZQGT-377" value="" style="endArrow=none;html=1;rounded=0;exitX=0.5;exitY=1;exitDx=0;exitDy=0;endFill=0;fontStyle=1;entryX=0.5;entryY=0;entryDx=0;entryDy=0;" edge="1" parent="1" source="jTfzwaUM89ImyYdVZQGT-181" target="jTfzwaUM89ImyYdVZQGT-372">
          <mxGeometry width="50" height="50" relative="1" as="geometry">
            <mxPoint x="247" y="193" as="sourcePoint" />
            <mxPoint x="385" y="297" as="targetPoint" />
          </mxGeometry>
        </mxCell>
        <mxCell id="jTfzwaUM89ImyYdVZQGT-378" value="1" style="rounded=0;whiteSpace=wrap;html=1;fontStyle=1;fontSize=18;" vertex="1" parent="1">
          <mxGeometry x="255" y="170" width="40" height="30" as="geometry" />
        </mxCell>
        <mxCell id="jTfzwaUM89ImyYdVZQGT-379" value="1" style="rounded=0;whiteSpace=wrap;html=1;fontStyle=1;fontSize=18;" vertex="1" parent="1">
          <mxGeometry x="475" y="530" width="40" height="30" as="geometry" />
        </mxCell>
      </root>
    </mxGraphModel>
  </diagram>
</mxfile>
